<?xml version="1.0" encoding="utf-8"?>
<!-- Generator: Adobe Illustrator 16.0.3, SVG Export Plug-In . SVG Version: 6.00 Build 0)  -->
<!DOCTYPE svg PUBLIC "-//W3C//DTD SVG 1.0//EN" "http://www.w3.org/TR/2001/REC-SVG-20010904/DTD/svg10.dtd">
<svg version="1.0" id="Layer_1" xmlns="http://www.w3.org/2000/svg" xmlns:xlink="http://www.w3.org/1999/xlink" x="0px" y="0px"
	 width="23.667px" height="22.677px" viewBox="0 0 23.667 22.677" enable-background="new 0 0 23.667 22.677" xml:space="preserve">
<path d="M14.219,9.247l-2.4-8.539L9.446,9.247l-8.828-0.42l7.38,4.864l-3.111,8.278l6.959-5.543l6.905,5.514l-3.082-8.249
	l7.38-4.864L14.219,9.247L14.219,9.247z M14.096,14.703c-0.611,0.607-1.371,0.91-2.278,0.91c-0.878,0-1.621-0.307-2.229-0.916
	c-0.608-0.612-0.911-1.364-0.911-2.25c0-0.89,0.307-1.639,0.919-2.251c0.613-0.613,1.361-0.917,2.25-0.917
	c0.878,0,1.625,0.31,2.243,0.933c0.618,0.621,0.926,1.366,0.926,2.235C15.016,13.342,14.709,14.096,14.096,14.703L14.096,14.703z"/>
</svg>
