<?xml version="1.0" encoding="utf-8"?>
<!-- Generator: Adobe Illustrator 16.0.3, SVG Export Plug-In . SVG Version: 6.00 Build 0)  -->
<!DOCTYPE svg PUBLIC "-//W3C//DTD SVG 1.0//EN" "http://www.w3.org/TR/2001/REC-SVG-20010904/DTD/svg10.dtd">
<svg version="1.0" id="Layer_1" xmlns="http://www.w3.org/2000/svg" xmlns:xlink="http://www.w3.org/1999/xlink" x="0px" y="0px"
	 width="23.667px" height="22.677px" viewBox="0 0 23.667 22.677" enable-background="new 0 0 23.667 22.677" xml:space="preserve">
<g>
	<path d="M21.672,7.273c-0.531-1.284-1.305-2.435-2.318-3.449c-1.034-1.014-2.189-1.787-3.472-2.318
		c-1.279-0.531-2.634-0.798-4.064-0.798c-1.42,0-2.774,0.269-4.064,0.805S5.316,2.819,4.312,3.824
		C3.297,4.839,2.524,5.989,1.993,7.273c-0.531,1.285-0.797,2.638-0.797,4.058c0,1.43,0.266,2.785,0.797,4.064
		c0.531,1.281,1.305,2.433,2.319,3.457c1.004,1.005,2.154,1.776,3.449,2.312c1.294,0.536,2.656,0.805,4.086,0.805
		c1.42,0,2.776-0.269,4.064-0.805c1.29-0.535,2.438-1.307,3.442-2.312c1.014-1.006,1.787-2.147,2.318-3.428
		c0.532-1.28,0.798-2.645,0.798-4.094C22.47,9.911,22.205,8.559,21.672,7.273L21.672,7.273z M17.196,8.693
		c-0.291-0.579-0.661-1.092-1.109-1.536c-0.449-0.443-0.993-0.841-1.631-1.188l4.695-1.956L17.196,8.693L17.196,8.693z
		 M12.782,5.454c-0.323-0.052-0.636-0.079-0.935-0.079c-0.318,0-0.638,0.027-0.957,0.079c-0.318,0.054-0.651,0.134-0.999,0.239
		l1.956-4.71l1.927,4.71C13.437,5.588,13.106,5.508,12.782,5.454L12.782,5.454z M17.485,13.272c0.105-0.347,0.188-0.683,0.247-1.007
		c0.058-0.323,0.087-0.635,0.087-0.935c0-0.29-0.027-0.591-0.081-0.906c-0.052-0.313-0.137-0.653-0.253-1.021l4.724,1.928
		L17.485,13.272L17.485,13.272z M16.543,13.287c-0.252,0.608-0.619,1.155-1.102,1.638c-0.494,0.492-1.046,0.864-1.66,1.116
		c-0.613,0.251-1.268,0.377-1.964,0.377c-0.676,0-1.323-0.128-1.941-0.385c-0.618-0.256-1.169-0.625-1.652-1.108
		c-0.483-0.482-0.85-1.029-1.102-1.638c-0.251-0.609-0.377-1.262-0.377-1.956c0-0.685,0.126-1.333,0.377-1.942
		C7.375,8.78,7.741,8.235,8.224,7.752s1.034-0.853,1.652-1.109c0.618-0.255,1.266-0.384,1.941-0.384
		c0.696,0,1.351,0.125,1.964,0.377c0.614,0.252,1.166,0.623,1.66,1.116c0.482,0.483,0.85,1.028,1.102,1.637
		c0.251,0.609,0.376,1.258,0.376,1.942C16.919,12.025,16.794,12.678,16.543,13.287L16.543,13.287z M7.616,7.128
		C7.162,7.583,6.78,8.104,6.47,8.693L4.515,4.013l4.694,1.956C8.601,6.288,8.07,6.674,7.616,7.128L7.616,7.128z M14.456,16.707
		c0.629-0.328,1.167-0.718,1.616-1.166c0.448-0.45,0.824-0.969,1.124-1.559l1.955,4.681L14.456,16.707L14.456,16.707z M1.457,11.331
		l4.725-1.928c-0.116,0.348-0.201,0.681-0.254,1c-0.053,0.318-0.079,0.63-0.079,0.928c0,0.318,0.028,0.64,0.087,0.964
		c0.058,0.324,0.14,0.65,0.246,0.978L1.457,11.331L1.457,11.331z M11.818,21.692l-1.927-4.71c0.348,0.106,0.681,0.187,0.999,0.239
		c0.319,0.053,0.628,0.08,0.928,0.08c0.31,0,0.627-0.027,0.95-0.08s0.659-0.133,1.006-0.239L11.818,21.692L11.818,21.692z
		 M4.515,18.663l1.955-4.681c0.281,0.58,0.65,1.098,1.109,1.551c0.459,0.454,1.002,0.846,1.63,1.174L4.515,18.663L4.515,18.663z"/>
</g>
</svg>
