<?xml version="1.0" encoding="utf-8"?>
<!-- Generator: Adobe Illustrator 16.0.3, SVG Export Plug-In . SVG Version: 6.00 Build 0)  -->
<!DOCTYPE svg PUBLIC "-//W3C//DTD SVG 1.0//EN" "http://www.w3.org/TR/2001/REC-SVG-20010904/DTD/svg10.dtd">
<svg version="1.0" id="Layer_1" xmlns="http://www.w3.org/2000/svg" xmlns:xlink="http://www.w3.org/1999/xlink" x="0px" y="0px"
	 width="46px" height="22.677px" viewBox="0 0 46 22.677" enable-background="new 0 0 46 22.677" xml:space="preserve">
<g>
	<path d="M44.903,7.502c-0.051-0.422-0.375-0.882-0.977-1.378c-0.656-0.556-1.344-0.826-2.053-0.812L21.429,5.446
		c-5.348,0.039-8.682,0.067-10.001,0.087L4.404,5.583C3.201,5.591,2.681,5.591,2.845,5.58c-0.42,0.042-0.863,0.277-1.326,0.702
		c-0.5,0.466-0.747,0.945-0.743,1.436l0.036,7.399c0.002,0.364,0.203,0.736,0.604,1.115c0.364,0.354,0.798,0.631,1.302,0.832
		c0.41,0.203,0.972,0.302,1.684,0.3l37.73-0.304l1.016-0.332c0.385-0.121,0.799-0.423,1.244-0.91
		c0.447-0.482,0.668-0.887,0.668-1.213l-0.023-5.409l0,0C45.036,9.079,44.989,8.514,44.903,7.502L44.903,7.502L44.903,7.502z
		 M43.668,16.151c-0.711,0.477-1.66,0.721-2.852,0.729L22.056,16.94c-10.65,0.038-16.688,0.072-18.113,0.102
		c-0.595,0.016-1.23-0.242-1.906-0.766c-0.675-0.529-1.014-1.002-1.017-1.425L0.97,7.938C0.966,7.446,1.261,6.967,1.853,6.5
		C2.41,6.064,2.922,5.844,3.389,5.841c0.877,0.003,2.003-0.009,3.382-0.04c1.879-0.034,2.995-0.056,3.345-0.068l31.303-0.211
		c0.912-0.006,1.689,0.263,2.336,0.809s0.973,1.203,0.977,1.969l0.076,5.602C44.825,14.883,44.446,15.635,43.668,16.151
		L43.668,16.151L43.668,16.151z M44.274,8.111c-0.002-0.413-0.232-0.843-0.691-1.292c-0.574-0.546-1.285-0.816-2.125-0.812
		l-9.705,0.026c-3.363,0.015-6.131,0.04-8.305,0.076L3.48,6.253C3.06,6.257,2.606,6.461,2.118,6.868
		C1.63,7.274,1.389,7.714,1.392,8.186l0.046,6.368c0.004,0.57,0.342,1.088,1.01,1.557c0.587,0.416,1.166,0.641,1.739,0.665
		l37.942-0.304c0.92-0.3,1.518-0.617,1.795-0.947c0.279-0.333,0.414-0.912,0.41-1.736L44.274,8.111L44.274,8.111z M43.67,14.279
		c0.004,0.46-0.232,0.841-0.709,1.14c-0.43,0.279-0.92,0.42-1.469,0.423l-37.38,0.286c-0.48,0.003-0.931-0.167-1.353-0.507
		c-0.378-0.292-0.565-0.566-0.567-0.822L2.146,8.297C2.142,7.737,2.349,7.342,2.768,7.114c0.35-0.2,0.908-0.302,1.68-0.308
		l28.396-0.146c5.139-0.038,7.707-0.085,7.705-0.144c-0.012-0.009-0.059-0.019-0.141-0.029c0.596-0.004,0.924,0.014,0.982,0.052
		c0.734-0.034,1.309,0.193,1.721,0.681c0.354,0.399,0.533,0.886,0.535,1.456L43.67,14.279L43.67,14.279z"/>
	<path d="M7.082,10.834l-1.301,0.958l0.51,1.539l-1.315-0.942l-1.301,0.96l0.487-1.543l-1.309-0.942l1.612-0.011l0.488-1.537
		l0.51,1.529L7.082,10.834z M4.958,11.534l-1.83-0.582l1.142,0.818L4.958,11.534z M4.974,12.278l-0.005-0.711L3.84,13.112
		L4.974,12.278z M4.969,11.518L4.956,9.609l-0.424,1.334L4.969,11.518z M6.122,13.096L5.673,11.76L4.98,11.545L6.122,13.096z
		 M6.802,10.927l-1.404,0.009l-0.412,0.593L6.802,10.927z"/>
	<path d="M9.127,13.321c-1.148-0.012-1.697-0.879-1.705-1.949c-0.01-1.206,0.664-2.067,1.676-2.11l0.003,0.302
		C8.85,9.619,8.768,9.833,8.77,10.052l0.018,2.474c0.001,0.219,0.087,0.433,0.337,0.493L9.127,13.321z M9.333,9.26
		c0.192,0.003,0.596,0.204,0.731,0.203c0.078,0,0.11-0.032,0.141-0.1c0.031-0.068,0.066-0.11,0.14-0.111
		c0.167-0.001,0.169,0.162,0.169,0.188l0.008,1.211c0.001,0.026,0.002,0.188-0.165,0.188c-0.109,0.001-0.173-0.087-0.194-0.186
		c-0.092-0.423-0.341-0.963-0.827-1.092L9.333,9.26z M10.381,12.102c0.099,0,0.156,0.082,0.159,0.177
		c-0.008,0.427-0.635,1.058-1.179,1.042L9.36,13.018c0.401-0.092,0.738-0.361,0.851-0.748C10.241,12.18,10.272,12.103,10.381,12.102
		z"/>
	<path d="M12.454,9.539c-0.244,0.091-0.265,0.249-0.264,0.378l0.02,2.703c0.002,0.132,0.023,0.286,0.27,0.374l0.002,0.303
		c-1.106-0.09-1.631-0.98-1.638-2.019c-0.007-1.038,0.502-1.934,1.608-2.042L12.454,9.539z M12.713,12.994
		c0.244-0.092,0.265-0.247,0.264-0.378l-0.021-2.704c-0.001-0.13-0.021-0.287-0.268-0.375l-0.002-0.302
		c1.106,0.091,1.63,0.979,1.637,2.018c0.008,1.038-0.503,1.934-1.608,2.043L12.713,12.994z"/>
	<path d="M17.76,11.917l0.009,1.263l-0.776,0.008l-1.935-3.281c-0.085-0.145-0.11-0.224-0.284-0.279
		c-0.089-0.031-0.157-0.052-0.157-0.167c-0.001-0.156,0.155-0.157,0.265-0.164l1.341-0.01L17.76,11.917z M15.03,10.278h0.01
		l0.297,0.521l0.011,1.574c0.088,0.652,0.421,0.446,0.422,0.67c0.001,0.162-0.212,0.154-0.271,0.154l-0.594,0.004
		c-0.058,0-0.272,0.012-0.273-0.149c-0.001-0.225,0.335-0.022,0.414-0.675L15.03,10.278z M17.445,10.224
		c-0.005-0.746-0.432-0.545-0.434-0.784c-0.001-0.146,0.172-0.159,0.224-0.159l0.711-0.005c0.052,0,0.223,0.009,0.224,0.156
		c0.002,0.239-0.427,0.044-0.421,0.791l0.009,1.269h-0.01l-0.297-0.527L17.445,10.224z"/>
	<path d="M20.491,13.161l-0.751,0.006l-1.026-3.349c-0.043-0.151-0.026-0.166-0.168-0.228c-0.063-0.031-0.104-0.079-0.106-0.151
		c-0.001-0.173,0.218-0.168,0.339-0.169l1.143-0.009c0.12,0,0.371-0.034,0.372,0.155c0.001,0.203-0.229,0.116-0.228,0.33
		c0,0.063,0.012,0.088,0.027,0.152l0.663,2.26L20.491,13.161z M20.708,11.225l0.299-1.157c0.026-0.083,0.035-0.115,0.034-0.204
		c0-0.147-0.063-0.234-0.199-0.28c-0.089-0.03-0.162-0.062-0.163-0.167c-0.001-0.162,0.187-0.163,0.297-0.164l0.574-0.003
		c0.114-0.001,0.308-0.023,0.308,0.144c0.002,0.115-0.071,0.13-0.159,0.173c-0.136,0.063-0.183,0.09-0.266,0.216
		c-0.066,0.11-0.107,0.23-0.138,0.35l-0.428,1.627h-0.01L20.708,11.225z"/>
	<path d="M23.708,12.554c0.001,0.193-0.003,0.225,0.181,0.28c0.068,0.021,0.117,0.067,0.117,0.14c0,0.151-0.172,0.163-0.193,0.164
		l-1.477,0.009c-0.021,0-0.193-0.008-0.195-0.159c0-0.072,0.047-0.12,0.115-0.142c0.182-0.059,0.177-0.09,0.176-0.283l-0.02-2.735
		c-0.002-0.192,0.004-0.225-0.18-0.28c-0.068-0.021-0.115-0.067-0.117-0.141c0-0.151,0.172-0.163,0.193-0.164l1.477-0.01
		c0.021,0,0.193,0.009,0.193,0.16c0.002,0.073-0.045,0.12-0.113,0.141c-0.182,0.059-0.178,0.091-0.176,0.284L23.708,12.554z"/>
	<path d="M25.946,13.123l-1.324,0.01c-0.115,0.001-0.246-0.009-0.246-0.16c-0.002-0.072,0.045-0.12,0.112-0.143
		c0.181-0.058,0.176-0.089,0.176-0.283l-0.019-2.734c-0.002-0.078,0.008-0.22-0.092-0.25c-0.104-0.036-0.205-0.051-0.205-0.182
		c0-0.135,0.129-0.152,0.234-0.152l1.336-0.01L25.946,13.123z M26.151,9.216c0.889-0.017,1.635,0.593,1.707,1.94
		c0.066,1.226-0.811,1.958-1.678,1.963l-0.002-0.303c0.318-0.043,0.33-0.342,0.33-0.539l-0.016-2.223c0-0.199-0.02-0.496-0.34-0.536
		L26.151,9.216z"/>
	<path d="M29.301,10.515l-0.479,1.789c-0.08,0.318-0.008,0.407,0.17,0.482c0.084,0.037,0.158,0.068,0.16,0.172
		c0,0.146-0.166,0.143-0.27,0.144l-0.602,0.005c-0.104,0-0.293-0.003-0.293-0.154c-0.002-0.125,0.088-0.122,0.201-0.18
		c0.109-0.058,0.25-0.18,0.346-0.551l0.609-2.295h0.018L29.301,10.515z M29.87,12.082l-0.762,0.005l0.072-0.303l0.637-0.006
		l-0.543-2.302l0.066-0.282l1.152-0.009l0.805,3.292c0.033,0.146,0.039,0.245,0.186,0.307c0.074,0.03,0.131,0.067,0.133,0.16
		c0,0.142-0.188,0.138-0.287,0.14l-1.299,0.008c-0.105,0-0.258-0.008-0.258-0.145c0-0.083,0.031-0.109,0.1-0.146
		c0.135-0.081,0.154-0.116,0.105-0.319L29.87,12.082z"/>
	<path d="M33.364,13.069l-1.326,0.01c-0.115,0-0.246-0.01-0.246-0.16c-0.002-0.073,0.043-0.119,0.113-0.143
		c0.182-0.059,0.176-0.09,0.174-0.283l-0.02-2.734c0-0.078,0.01-0.219-0.088-0.249c-0.107-0.036-0.205-0.051-0.207-0.182
		c0-0.135,0.131-0.152,0.234-0.153l1.334-0.01L33.364,13.069z M33.569,9.164c0.887-0.017,1.633,0.593,1.703,1.939
		c0.068,1.227-0.807,1.958-1.674,1.964l-0.004-0.303c0.318-0.044,0.332-0.341,0.33-0.54l-0.014-2.223
		c-0.002-0.198-0.021-0.495-0.34-0.535L33.569,9.164z"/>
	<path d="M37.159,9.361c-0.244,0.091-0.264,0.247-0.264,0.377l0.02,2.704c0.002,0.13,0.023,0.286,0.27,0.374l0.002,0.303
		c-1.107-0.091-1.631-0.98-1.639-2.018c-0.006-1.039,0.504-1.936,1.609-2.042L37.159,9.361z M37.417,12.815
		c0.246-0.091,0.266-0.247,0.266-0.377l-0.02-2.704c-0.002-0.13-0.023-0.286-0.271-0.374l-0.002-0.302
		c1.109,0.09,1.633,0.98,1.639,2.018c0.008,1.038-0.504,1.935-1.609,2.043L37.417,12.815z"/>
	<path d="M43.532,10.571l-1.301,0.958l0.508,1.538l-1.314-0.942l-1.301,0.962l0.488-1.545l-1.309-0.939l1.613-0.012l0.488-1.537
		l0.508,1.529L43.532,10.571z M41.409,11.271l-1.832-0.583l1.143,0.819L41.409,11.271z M41.424,12.016l-0.004-0.711l-1.131,1.544
		L41.424,12.016z M41.418,11.256l-0.012-1.909l-0.426,1.332L41.418,11.256z M42.573,12.833l-0.449-1.336l-0.691-0.215L42.573,12.833
		z M43.252,10.663l-1.404,0.011l-0.412,0.593L43.252,10.663z"/>
</g>
</svg>
