<?xml version="1.0" encoding="utf-8"?>
<!-- Generator: Adobe Illustrator 16.0.3, SVG Export Plug-In . SVG Version: 6.00 Build 0)  -->
<!DOCTYPE svg PUBLIC "-//W3C//DTD SVG 1.0//EN" "http://www.w3.org/TR/2001/REC-SVG-20010904/DTD/svg10.dtd">
<svg version="1.0" id="Layer_1" xmlns="http://www.w3.org/2000/svg" xmlns:xlink="http://www.w3.org/1999/xlink" x="0px" y="0px"
	 width="22.677px" height="22.677px" viewBox="0 0 22.677 22.677" enable-background="new 0 0 22.677 22.677" xml:space="preserve">
<g>
	<path d="M21.962,11.606l-6.551,1.421l3.651,5.636l-0.391,0.391l-5.638-3.65l-1.42,6.565h-0.536l-1.436-6.565l-5.638,3.65
		l-0.376-0.391l3.652-5.636l-6.566-1.421v-0.537l6.566-1.42L3.628,4.012l0.376-0.392l5.638,3.652l1.436-6.564h0.536l1.42,6.564
		l5.638-3.652l0.391,0.392l-3.651,5.637l6.551,1.42V11.606z M10.86,11.332H1.787l6.116,1.317L10.86,11.332z M11.019,11.012
		L4.57,4.563l3.392,5.26L11.019,11.012z M11.019,11.664L4.57,18.098l5.261-3.376L11.019,11.664z M11.338,10.867V1.78l-1.304,6.116
		L11.338,10.867z M12.643,14.778l-1.305-2.969v9.087L12.643,14.778z M18.106,4.563l-5.248,3.391l-1.187,3.058L18.106,4.563z
		 M18.106,18.098l-3.376-5.247l-3.059-1.187L18.106,18.098z M20.903,11.332l-6.114-1.306l-2.973,1.306H20.903z"/>
</g>
</svg>
